<?xml version="1.0" standalone="no"?>
<!DOCTYPE svg PUBLIC "-//W3C//DTD SVG 20010904//EN"
 "http://www.w3.org/TR/2001/REC-SVG-20010904/DTD/svg10.dtd">
<svg version="1.0" xmlns="http://www.w3.org/2000/svg"
 width="274.000000pt" height="274.000000pt" viewBox="0 0 274.000000 274.000000"
 preserveAspectRatio="xMidYMid meet">
<metadata>
Created by potrace 1.14, written by Peter Selinger 2001-2017
</metadata>
<g transform="translate(0.000000,274.000000) scale(0.100000,-0.100000)"
fill="#000000" stroke="none">
<path d="M460 2718 c-56 -27 -120 -91 -144 -141 -18 -39 -34 -119 -31 -153 12
-120 58 -199 153 -258 23 -14 42 -34 42 -43 0 -9 -13 -44 -29 -77 -72 -153
-102 -301 -100 -502 2 -272 59 -468 192 -664 l31 -45 1 -310 c1 -170 5 -321
10 -335 16 -48 59 -102 99 -123 41 -21 46 -21 790 -22 504 0 764 4 792 11 59
15 107 54 135 111 l24 48 1 585 c0 322 -4 609 -8 638 -5 30 -19 75 -32 101
-16 31 -26 72 -31 126 -20 249 -114 455 -288 629 -81 81 -226 186 -257 186 -9
0 -20 4 -26 10 -13 13 -137 59 -208 76 -142 34 -296 37 -441 9 -65 -13 -171
-50 -191 -67 -11 -10 -23 -18 -26 -18 -3 0 -19 28 -36 63 -64 129 -143 181
-287 184 -75 3 -97 -1 -135 -19z"/>
</g>
</svg>
